<svg width="32" height="16" viewBox="0 0 32 32" fill="none" xmlns="http://www.w3.org/2000/svg">
<path d="M27.0795 5.45901V0.558528H21.5943L20.6913 16.9236L19.7991 0.558528H17.821L18.0421 4.92845C17.814 3.80845 17.0046 0.558528 15.2222 0.558528C15.2103 0.556608 13.2417 0.558528 13.2417 0.558528L13.2335 24.412L11.792 0.558528L9.20103 0.556608L7.70958 25.2713L7.71041 0.558528H5.23028L4.33652 14.4414L3.46586 0.558528H0.985352V27.4276H2.93882V14.4766L3.82753 27.4276H4.86586L5.74202 14.4766V27.4276H9.50766L9.73537 23.2948H11.2514L11.4791 27.4276L15.1765 27.4336H15.1791V27.4276H15.1838V18.707L15.6365 18.5432L16.5748 27.4336H18.4873L18.4865 27.4276H18.492L17.2607 17.01C17.8842 15.8614 18.5889 12.9494 18.4014 10.1624V10.1614C18.4037 10.1976 19.5638 27.4456 19.5638 27.4456L21.838 27.428L23.3919 3.07549V27.428H27.0794V22.5961H25.3294V16.435H27.0794V11.5294H25.3294V5.45901H27.0795ZM9.96545 19.0352L10.5022 7.54685L11.0584 19.0352H9.96545ZM15.6428 13.7304C15.4927 13.91 15.3366 14 15.1838 14.0009V5.35933C15.1861 5.35933 15.1897 5.35837 15.1935 5.35837C15.3459 5.35549 16.4865 5.47261 16.4865 9.63181C16.4865 11.8075 16.0987 13.1796 15.6428 13.7304ZM31.0147 22.5916V27.4217H27.417V0.554688H29.3544V22.5916H31.0147Z" fill="white"/>
</svg>
